<?xml version="1.0" encoding="UTF-8"?>
<!DOCTYPE svg PUBLIC "-//W3C//DTD SVG 1.1//EN" "http://www.w3.org/Graphics/SVG/1.1/DTD/svg11.dtd">
<svg xmlns="http://www.w3.org/2000/svg" version="1.1" width="160px" height="160px" style="shape-rendering:geometricPrecision; text-rendering:geometricPrecision; image-rendering:optimizeQuality; fill-rule:evenodd; clip-rule:evenodd" xmlns:xlink="http://www.w3.org/1999/xlink">
<g><path style="opacity:0.004" fill="#fefffe" d="M 110.5,6.5 C 113.976,5.35673 117.642,5.19007 121.5,6C 117.848,6.49863 114.182,6.6653 110.5,6.5 Z"/></g>
<g><path style="opacity:1" fill="#fbd05b" d="M 43.5,22.5 C 40.6468,26.1467 40.9801,26.8134 44.5,24.5C 47.172,26.4255 48.172,29.0921 47.5,32.5C 44.7938,32.5751 42.1272,32.9084 39.5,33.5C 39.6567,32.1266 39.49,30.7932 39,29.5C 38.7216,30.4158 38.2216,31.0825 37.5,31.5C 37.9932,27.366 39.9932,24.366 43.5,22.5 Z"/></g>
<g><path style="opacity:1" fill="#f0b829" d="M 126.5,58.5 C 125.778,58.9175 125.278,59.5842 125,60.5C 124.303,58.0772 122.803,56.4105 120.5,55.5C 118.265,50.0355 116.932,44.3689 116.5,38.5C 117.756,38.5386 118.756,38.0386 119.5,37C 116.854,36.5026 114.187,36.3359 111.5,36.5C 111.886,33.2659 110.552,30.5993 107.5,28.5C 108.791,27.4728 108.791,26.4728 107.5,25.5C 111.137,25.5132 114.137,24.1798 116.5,21.5C 116.145,20.4777 115.478,19.811 114.5,19.5C 113.833,18.1667 112.833,17.1667 111.5,16.5C 109.999,15.2485 108.332,14.2485 106.5,13.5C 88.0641,6.05255 70.0641,6.88589 52.5,16C 50.0771,17.5707 48.7438,19.7374 48.5,22.5C 49.1667,23.8333 50.1667,24.8333 51.5,25.5C 51.5,26.1667 51.8333,26.5 52.5,26.5C 53.2905,27.4013 54.2905,28.0679 55.5,28.5C 57.2774,29.6005 59.2774,30.4338 61.5,31C 68.2157,31.679 74.8824,32.679 81.5,34C 79.7444,34.2022 78.0777,34.7022 76.5,35.5C 77.6888,36.4287 79.0222,36.762 80.5,36.5C 86.31,37.4896 92.31,37.8229 98.5,37.5C 100.5,37.5 102.5,37.5 104.5,37.5C 104.5,37.8333 104.5,38.1667 104.5,38.5C 91.9586,39.2129 79.6253,38.2129 67.5,35.5C 61.3449,33.7632 55.3449,31.4298 49.5,28.5C 49.6641,31.1873 49.4974,33.854 49,36.5C 47.2751,42.4544 45.1084,48.1211 42.5,53.5C 40.2453,54.2147 38.4119,55.548 37,57.5C 36.1697,52.1924 35.6697,46.8591 35.5,41.5C 35.1588,37.8405 35.8255,34.5072 37.5,31.5C 38.2216,31.0825 38.7216,30.4158 39,29.5C 39.49,30.7932 39.6567,32.1266 39.5,33.5C 42.1272,32.9084 44.7938,32.5751 47.5,32.5C 48.172,29.0921 47.172,26.4255 44.5,24.5C 40.9801,26.8134 40.6468,26.1467 43.5,22.5C 49.2566,14.1064 57.2566,8.93974 67.5,7C 84.7321,3.65166 100.732,6.65166 115.5,16C 126.897,28.0841 130.563,42.2508 126.5,58.5 Z"/></g>
<g><path style="opacity:1" fill="#ffde71" d="M 98.5,37.5 C 92.31,37.8229 86.31,37.4896 80.5,36.5C 83.3138,35.8353 86.3138,35.502 89.5,35.5C 92.9134,35.517 95.9134,36.1836 98.5,37.5 Z"/></g>
<g><path style="opacity:1" fill="#fed662" d="M 114.5,19.5 C 115.478,19.811 116.145,20.4777 116.5,21.5C 114.137,24.1798 111.137,25.5132 107.5,25.5C 94.8667,24.9418 82.2,25.1085 69.5,26C 65.0492,27.9736 60.3825,28.807 55.5,28.5C 54.2905,28.0679 53.2905,27.4013 52.5,26.5C 59.3629,25.9037 66.0295,24.4037 72.5,22C 85.8333,21.6667 99.1667,21.3333 112.5,21C 113.416,20.7216 114.082,20.2216 114.5,19.5 Z"/></g>
<g><path style="opacity:1" fill="#fecf41" d="M 107.5,25.5 C 108.791,26.4728 108.791,27.4728 107.5,28.5C 110.552,30.5993 111.886,33.2659 111.5,36.5C 109.236,37.2186 106.903,37.552 104.5,37.5C 102.5,37.5 100.5,37.5 98.5,37.5C 95.9134,36.1836 92.9134,35.517 89.5,35.5C 86.3138,35.502 83.3138,35.8353 80.5,36.5C 79.0222,36.762 77.6888,36.4287 76.5,35.5C 78.0777,34.7022 79.7444,34.2022 81.5,34C 74.8824,32.679 68.2157,31.679 61.5,31C 59.2774,30.4338 57.2774,29.6005 55.5,28.5C 60.3825,28.807 65.0492,27.9736 69.5,26C 82.2,25.1085 94.8667,24.9418 107.5,25.5 Z"/></g>
<g><path style="opacity:1" fill="#fdde88" d="M 111.5,16.5 C 112.833,17.1667 113.833,18.1667 114.5,19.5C 114.082,20.2216 113.416,20.7216 112.5,21C 99.1667,21.3333 85.8333,21.6667 72.5,22C 66.0295,24.4037 59.3629,25.9037 52.5,26.5C 51.8333,26.5 51.5,26.1667 51.5,25.5C 58.7952,23.5025 66.1285,21.5025 73.5,19.5C 85.8185,18.7479 98.1518,18.2479 110.5,18C 111.056,17.6174 111.389,17.1174 111.5,16.5 Z"/></g>
<g><path style="opacity:1" fill="#fee9ac" d="M 106.5,13.5 C 108.332,14.2485 109.999,15.2485 111.5,16.5C 111.389,17.1174 111.056,17.6174 110.5,18C 98.1518,18.2479 85.8185,18.7479 73.5,19.5C 66.1285,21.5025 58.7952,23.5025 51.5,25.5C 50.1667,24.8333 49.1667,23.8333 48.5,22.5C 56.4864,19.8273 64.8198,17.994 73.5,17C 83.8333,16.6667 94.1667,16.3333 104.5,16C 105.756,15.5831 106.423,14.7498 106.5,13.5 Z"/></g>
<g><path style="opacity:1" fill="#fef0c8" d="M 106.5,13.5 C 106.423,14.7498 105.756,15.5831 104.5,16C 94.1667,16.3333 83.8333,16.6667 73.5,17C 64.8198,17.994 56.4864,19.8273 48.5,22.5C 48.7438,19.7374 50.0771,17.5707 52.5,16C 70.0641,6.88589 88.0641,6.05255 106.5,13.5 Z"/></g>
<g><path style="opacity:1" fill="#ab6c0b" d="M 111.5,36.5 C 114.187,36.3359 116.854,36.5026 119.5,37C 118.756,38.0386 117.756,38.5386 116.5,38.5C 112.679,37.7736 108.679,37.7736 104.5,38.5C 104.5,38.1667 104.5,37.8333 104.5,37.5C 106.903,37.552 109.236,37.2186 111.5,36.5 Z"/></g>
<g><path style="opacity:1" fill="#844803" d="M 67.5,35.5 C 79.6253,38.2129 91.9586,39.2129 104.5,38.5C 108.679,37.7736 112.679,37.7736 116.5,38.5C 116.932,44.3689 118.265,50.0355 120.5,55.5C 120.672,56.4916 120.338,57.1583 119.5,57.5C 117.637,53.245 115.97,48.9117 114.5,44.5C 114.714,42.8561 114.38,41.3561 113.5,40C 99.8482,40.4507 86.1816,40.4507 72.5,40C 68.4159,39.4782 64.4159,38.6449 60.5,37.5C 59.6016,36.8423 58.6016,36.1757 57.5,35.5C 60.8151,34.4473 64.1485,34.4473 67.5,35.5 Z"/></g>
<g><path style="opacity:1" fill="#e1a416" d="M 60.5,37.5 C 64.4159,38.6449 68.4159,39.4782 72.5,40C 86.1816,40.4507 99.8482,40.4507 113.5,40C 114.38,41.3561 114.714,42.8561 114.5,44.5C 113.778,44.0825 113.278,43.4158 113,42.5C 101.084,44.4675 88.9178,45.1341 76.5,44.5C 75.1667,44.5 73.8333,44.5 72.5,44.5C 64.8333,43.3897 57.5,41.0563 50.5,37.5C 50.4701,36.5028 50.9701,35.8361 52,35.5C 54.7236,36.6868 57.5569,37.3535 60.5,37.5 Z"/></g>
<g><path style="opacity:1" fill="#feca2f" d="M 72.5,44.5 C 73.8333,44.5 75.1667,44.5 76.5,44.5C 78.4982,45.1475 80.4982,45.9808 82.5,47C 89.1667,47.3333 95.8333,47.6667 102.5,48C 104.927,49.5545 104.927,50.7211 102.5,51.5C 99.8127,51.3359 97.146,51.5026 94.5,52C 92.6063,53.0793 92.273,54.4126 93.5,56C 97.5276,56.3918 101.528,56.8918 105.5,57.5C 106.209,58.404 107.209,58.7373 108.5,58.5C 108.843,60.4832 108.176,61.8166 106.5,62.5C 104.883,61.0277 102.883,60.361 100.5,60.5C 97.4995,60.1716 95.1661,61.1716 93.5,63.5C 90.7193,67.0188 90.0527,70.8522 91.5,75C 97.5679,77.0496 103.568,76.8829 109.5,74.5C 107.391,77.8766 105.724,81.5432 104.5,85.5C 103.5,86.3333 102.5,87.1667 101.5,88C 97.5138,88.4988 93.5138,88.6655 89.5,88.5C 89.8841,86.3352 89.2174,84.6685 87.5,83.5C 84.727,87.0086 81.0604,88.3419 76.5,87.5C 76.5,86.1667 76.5,84.8333 76.5,83.5C 73.0897,83.3838 71.7564,85.0504 72.5,88.5C 66.1667,88.5 59.8333,88.5 53.5,88.5C 52.8802,83.8057 51.5469,79.3057 49.5,75C 49.8361,73.9701 50.5028,73.4701 51.5,73.5C 57.9515,77.0846 64.6181,77.418 71.5,74.5C 71.8333,73.8333 72.1667,73.1667 72.5,72.5C 71.9537,70.8653 71.6204,69.1986 71.5,67.5C 71.2007,64.3579 69.5341,62.1912 66.5,61C 62.2686,60.0805 58.2686,60.5805 54.5,62.5C 53.5655,61.4324 53.2322,60.099 53.5,58.5C 55.099,58.7678 56.4324,58.4345 57.5,57.5C 61.2984,56.5166 65.2984,56.1832 69.5,56.5C 69.7733,54.549 69.1066,53.049 67.5,52C 63.4631,51.3933 59.4631,51.56 55.5,52.5C 55.0618,52.5654 54.7284,52.3988 54.5,52C 57.6945,50.3054 60.0278,47.8054 61.5,44.5C 65.0957,43.9209 68.7624,43.9209 72.5,44.5 Z"/></g>
<g><path style="opacity:1" fill="#f7be23" d="M 114.5,44.5 C 115.97,48.9117 117.637,53.245 119.5,57.5C 119.177,63.69 119.51,69.69 120.5,75.5C 119.326,80.432 117.659,85.0987 115.5,89.5C 106.5,89.5 97.5,89.5 88.5,89.5C 88.38,88.4138 87.7133,87.7472 86.5,87.5C 83.0117,88.7048 79.6784,88.7048 76.5,87.5C 81.0604,88.3419 84.727,87.0086 87.5,83.5C 89.2174,84.6685 89.8841,86.3352 89.5,88.5C 93.5138,88.6655 97.5138,88.4988 101.5,88C 102.5,87.1667 103.5,86.3333 104.5,85.5C 105.724,81.5432 107.391,77.8766 109.5,74.5C 111.243,72.8739 111.743,70.8739 111,68.5C 109.668,66.34 108.168,64.34 106.5,62.5C 108.176,61.8166 108.843,60.4832 108.5,58.5C 107.209,58.7373 106.209,58.404 105.5,57.5C 106.833,57.5 108.167,57.5 109.5,57.5C 109.67,56.1779 109.337,55.0113 108.5,54C 106.277,53.4338 104.277,52.6005 102.5,51.5C 104.927,50.7211 104.927,49.5545 102.5,48C 95.8333,47.6667 89.1667,47.3333 82.5,47C 80.4982,45.9808 78.4982,45.1475 76.5,44.5C 88.9178,45.1341 101.084,44.4675 113,42.5C 113.278,43.4158 113.778,44.0825 114.5,44.5 Z"/></g>
<g><path style="opacity:1" fill="#925403" d="M 57.5,57.5 C 56.1667,57.5 54.8333,57.5 53.5,57.5C 53.3915,55.4862 54.0582,53.8195 55.5,52.5C 59.4631,51.56 63.4631,51.3933 67.5,52C 69.1066,53.049 69.7733,54.549 69.5,56.5C 65.2984,56.1832 61.2984,56.5166 57.5,57.5 Z"/></g>
<g><path style="opacity:1" fill="#905203" d="M 102.5,51.5 C 104.277,52.6005 106.277,53.4338 108.5,54C 109.337,55.0113 109.67,56.1779 109.5,57.5C 108.167,57.5 106.833,57.5 105.5,57.5C 101.528,56.8918 97.5276,56.3918 93.5,56C 92.273,54.4126 92.6063,53.0793 94.5,52C 97.146,51.5026 99.8127,51.3359 102.5,51.5 Z"/></g>
<g><path style="opacity:1" fill="#f7bd23" d="M 50.5,37.5 C 57.5,41.0563 64.8333,43.3897 72.5,44.5C 68.7624,43.9209 65.0957,43.9209 61.5,44.5C 60.0278,47.8054 57.6945,50.3054 54.5,52C 54.7284,52.3988 55.0618,52.5654 55.5,52.5C 54.0582,53.8195 53.3915,55.4862 53.5,57.5C 54.8333,57.5 56.1667,57.5 57.5,57.5C 56.4324,58.4345 55.099,58.7678 53.5,58.5C 53.2322,60.099 53.5655,61.4324 54.5,62.5C 54.5,62.8333 54.5,63.1667 54.5,63.5C 52.0216,66.3291 51.0216,69.6625 51.5,73.5C 50.5028,73.4701 49.8361,73.9701 49.5,75C 51.5469,79.3057 52.8802,83.8057 53.5,88.5C 59.8333,88.5 66.1667,88.5 72.5,88.5C 71.7564,85.0504 73.0897,83.3838 76.5,83.5C 76.5,84.8333 76.5,86.1667 76.5,87.5C 75.1667,87.5 74.5,88.1667 74.5,89.5C 64.8333,89.5 55.1667,89.5 45.5,89.5C 45.049,84.7632 44.3823,80.0965 43.5,75.5C 43.3337,68.4921 43.5004,61.4921 44,54.5C 46.8637,49.072 49.0304,43.4053 50.5,37.5 Z"/></g>
<g><path style="opacity:1" fill="#c08b27" d="M 106.5,62.5 C 105.508,62.3284 104.842,62.6618 104.5,63.5C 102.059,62.2437 99.7257,62.2437 97.5,63.5C 96.8333,63.5 96.1667,63.5 95.5,63.5C 94.8333,63.5 94.1667,63.5 93.5,63.5C 95.1661,61.1716 97.4995,60.1716 100.5,60.5C 102.883,60.361 104.883,61.0277 106.5,62.5 Z"/></g>
<g><path style="opacity:1" fill="#b97c15" d="M 120.5,55.5 C 122.803,56.4105 124.303,58.0772 125,60.5C 125.278,59.5842 125.778,58.9175 126.5,58.5C 125.929,60.36 125.929,62.0267 126.5,63.5C 125.5,63.5 124.5,63.5 123.5,63.5C 123.665,66.5184 123.498,69.5184 123,72.5C 122.623,73.9423 121.79,74.9423 120.5,75.5C 119.51,69.69 119.177,63.69 119.5,57.5C 120.338,57.1583 120.672,56.4916 120.5,55.5 Z"/></g>
<g><path style="opacity:1" fill="#cd9e3f" d="M 71.5,67.5 C 70.6851,66.5707 69.8518,65.5707 69,64.5C 68.6012,64.7284 68.4346,65.0618 68.5,65.5C 68.1667,65.5 67.8333,65.5 67.5,65.5C 64.2299,61.8933 60.5633,61.56 56.5,64.5C 56.1583,63.6618 55.4916,63.3284 54.5,63.5C 54.5,63.1667 54.5,62.8333 54.5,62.5C 58.2686,60.5805 62.2686,60.0805 66.5,61C 69.5341,62.1912 71.2007,64.3579 71.5,67.5 Z"/></g>
<g><path style="opacity:1" fill="#1c1509" d="M 104.5,63.5 C 105.167,63.5 105.5,63.8333 105.5,64.5C 104.85,66.4352 104.517,68.4352 104.5,70.5C 104.167,71.5 103.5,72.1667 102.5,72.5C 99.7938,72.4249 97.1272,72.0916 94.5,71.5C 93.233,68.7835 93.5663,66.1168 95.5,63.5C 96.1667,63.5 96.8333,63.5 97.5,63.5C 99.7257,62.2437 102.059,62.2437 104.5,63.5 Z"/></g>
<g><path style="opacity:1" fill="#1d1509" d="M 67.5,65.5 C 66.8384,67.4705 66.1717,69.4705 65.5,71.5C 65.0431,72.2975 64.3764,72.6309 63.5,72.5C 61.0314,71.9329 58.698,71.9329 56.5,72.5C 55.1667,69.8333 55.1667,67.1667 56.5,64.5C 60.5633,61.56 64.2299,61.8933 67.5,65.5 Z"/></g>
<g><path style="opacity:1" fill="#e1cb91" d="M 59.5,63.5 C 60.5862,63.62 61.2528,64.2867 61.5,65.5C 60.6964,67.9573 59.6964,67.9573 58.5,65.5C 58.8627,64.8165 59.1961,64.1499 59.5,63.5 Z"/></g>
<g><path style="opacity:1" fill="#d19c30" d="M 35.5,41.5 C 35.6697,46.8591 36.1697,52.1924 37,57.5C 38.4119,55.548 40.2453,54.2147 42.5,53.5C 41.9524,55.3936 40.9524,57.0603 39.5,58.5C 39.8457,59.6956 40.3457,59.6956 41,58.5C 41.1667,59.6667 41.3333,60.8333 41.5,62C 41.0552,64.5902 40.3886,67.0902 39.5,69.5C 38.8525,67.5018 38.0192,65.5018 37,63.5C 35.6081,66.2784 35.1081,69.2784 35.5,72.5C 35.1667,72.5 34.8333,72.5 34.5,72.5C 32.797,68.4862 33.4637,64.8195 36.5,61.5C 34.9482,54.7304 34.6148,48.0638 35.5,41.5 Z"/></g>
<g><path style="opacity:1" fill="#bc7e0f" d="M 67.5,35.5 C 64.1485,34.4473 60.8151,34.4473 57.5,35.5C 58.6016,36.1757 59.6016,36.8423 60.5,37.5C 57.5569,37.3535 54.7236,36.6868 52,35.5C 50.9701,35.8361 50.4701,36.5028 50.5,37.5C 49.0304,43.4053 46.8637,49.072 44,54.5C 43.5004,61.4921 43.3337,68.4921 43.5,75.5C 39.9319,75.2407 38.5985,73.2407 39.5,69.5C 40.3886,67.0902 41.0552,64.5902 41.5,62C 41.3333,60.8333 41.1667,59.6667 41,58.5C 40.3457,59.6956 39.8457,59.6956 39.5,58.5C 40.9524,57.0603 41.9524,55.3936 42.5,53.5C 45.1084,48.1211 47.2751,42.4544 49,36.5C 49.4974,33.854 49.6641,31.1873 49.5,28.5C 55.3449,31.4298 61.3449,33.7632 67.5,35.5 Z"/></g>
<g><path style="opacity:0.686" fill="#a8946b" d="M 127.5,64.5 C 128.88,64.9623 129.547,65.9623 129.5,67.5C 128.605,71.9934 127.605,76.3268 126.5,80.5C 126.98,75.1779 127.313,69.8446 127.5,64.5 Z"/></g>
<g><path style="opacity:1" fill="#fcedb9" d="M 54.5,63.5 C 55.4916,63.3284 56.1583,63.6618 56.5,64.5C 55.1667,67.1667 55.1667,69.8333 56.5,72.5C 56.9528,73.4584 57.6195,74.2917 58.5,75C 60.8098,75.4966 63.1432,75.6633 65.5,75.5C 69.2659,73.0076 70.2659,69.6742 68.5,65.5C 68.4346,65.0618 68.6012,64.7284 69,64.5C 69.8518,65.5707 70.6851,66.5707 71.5,67.5C 71.6204,69.1986 71.9537,70.8653 72.5,72.5C 72.1667,73.1667 71.8333,73.8333 71.5,74.5C 64.6181,77.418 57.9515,77.0846 51.5,73.5C 51.0216,69.6625 52.0216,66.3291 54.5,63.5 Z"/></g>
<g><path style="opacity:1" fill="#a76d17" d="M 67.5,65.5 C 67.8333,65.5 68.1667,65.5 68.5,65.5C 70.2659,69.6742 69.2659,73.0076 65.5,75.5C 64.0484,74.6981 62.3817,74.1981 60.5,74C 61.7375,73.7679 62.7375,73.2679 63.5,72.5C 64.3764,72.6309 65.0431,72.2975 65.5,71.5C 66.1717,69.4705 66.8384,67.4705 67.5,65.5 Z"/></g>
<g><path style="opacity:1" fill="#fae8ab" d="M 104.5,63.5 C 104.842,62.6618 105.508,62.3284 106.5,62.5C 108.168,64.34 109.668,66.34 111,68.5C 111.743,70.8739 111.243,72.8739 109.5,74.5C 103.568,76.8829 97.5679,77.0496 91.5,75C 90.0527,70.8522 90.7193,67.0188 93.5,63.5C 94.1667,63.5 94.8333,63.5 95.5,63.5C 93.5663,66.1168 93.233,68.7835 94.5,71.5C 94.5106,73.0174 95.1772,74.1841 96.5,75C 98.8098,75.4966 101.143,75.6633 103.5,75.5C 104.833,74.8333 105.833,73.8333 106.5,72.5C 106.894,71.0328 107.227,69.5328 107.5,68C 107.613,66.3009 106.947,65.1342 105.5,64.5C 105.5,63.8333 105.167,63.5 104.5,63.5 Z"/></g>
<g><path style="opacity:1" fill="#774308" d="M 105.5,64.5 C 106.947,65.1342 107.613,66.3009 107.5,68C 107.227,69.5328 106.894,71.0328 106.5,72.5C 105.833,71.8333 105.167,71.1667 104.5,70.5C 104.517,68.4352 104.85,66.4352 105.5,64.5 Z"/></g>
<g><path style="opacity:1" fill="#d8c188" d="M 97.5,63.5 C 100.861,64.2032 101.194,65.5365 98.5,67.5C 96.3576,66.5629 96.0243,65.2296 97.5,63.5 Z"/></g>
<g><path style="opacity:1" fill="#633405" d="M 63.5,72.5 C 62.7375,73.2679 61.7375,73.7679 60.5,74C 62.3817,74.1981 64.0484,74.6981 65.5,75.5C 63.1432,75.6633 60.8098,75.4966 58.5,75C 57.6195,74.2917 56.9528,73.4584 56.5,72.5C 58.698,71.9329 61.0314,71.9329 63.5,72.5 Z"/></g>
<g><path style="opacity:1" fill="#c0841a" d="M 104.5,70.5 C 105.167,71.1667 105.833,71.8333 106.5,72.5C 105.833,73.8333 104.833,74.8333 103.5,75.5C 103.082,74.7784 102.416,74.2784 101.5,74C 102.056,73.6174 102.389,73.1174 102.5,72.5C 103.5,72.1667 104.167,71.5 104.5,70.5 Z"/></g>
<g><path style="opacity:1" fill="#6e3e07" d="M 94.5,71.5 C 97.1272,72.0916 99.7938,72.4249 102.5,72.5C 102.389,73.1174 102.056,73.6174 101.5,74C 102.416,74.2784 103.082,74.7784 103.5,75.5C 101.143,75.6633 98.8098,75.4966 96.5,75C 95.1772,74.1841 94.5106,73.0174 94.5,71.5 Z"/></g>
<g><path style="opacity:0.49" fill="#b09760" d="M 34.5,72.5 C 34.8333,72.5 35.1667,72.5 35.5,72.5C 36.0508,75.8067 36.3841,79.1401 36.5,82.5C 35.2154,79.4115 34.5488,76.0781 34.5,72.5 Z"/></g>
<g><path style="opacity:1" fill="#dea31c" d="M 39.5,69.5 C 38.5985,73.2407 39.9319,75.2407 43.5,75.5C 44.3823,80.0965 45.049,84.7632 45.5,89.5C 43.5,89.1667 41.5,88.8333 39.5,88.5C 37.615,86.9468 36.615,84.9468 36.5,82.5C 36.3841,79.1401 36.0508,75.8067 35.5,72.5C 35.1081,69.2784 35.6081,66.2784 37,63.5C 38.0192,65.5018 38.8525,67.5018 39.5,69.5 Z"/></g>
<g><path style="opacity:1" fill="#e0a61f" d="M 126.5,63.5 C 127.167,63.5 127.5,63.8333 127.5,64.5C 127.313,69.8446 126.98,75.1779 126.5,80.5C 126.278,83.5042 125.278,86.1708 123.5,88.5C 120.833,88.8333 118.167,89.1667 115.5,89.5C 117.659,85.0987 119.326,80.432 120.5,75.5C 121.79,74.9423 122.623,73.9423 123,72.5C 123.498,69.5184 123.665,66.5184 123.5,63.5C 124.5,63.5 125.5,63.5 126.5,63.5 Z"/></g>
<g><path style="opacity:1" fill="#a46a19" d="M 76.5,87.5 C 79.6784,88.7048 83.0117,88.7048 86.5,87.5C 87.7133,87.7472 88.38,88.4138 88.5,89.5C 83.8333,89.5 79.1667,89.5 74.5,89.5C 74.5,88.1667 75.1667,87.5 76.5,87.5 Z"/></g>
<g><path style="opacity:1" fill="#d1d0ce" d="M 39.5,88.5 C 41.5,88.8333 43.5,89.1667 45.5,89.5C 55.1667,89.5 64.8333,89.5 74.5,89.5C 79.1667,89.5 83.8333,89.5 88.5,89.5C 97.5,89.5 106.5,89.5 115.5,89.5C 118.167,89.1667 120.833,88.8333 123.5,88.5C 127.846,88.3343 132.179,88.501 136.5,89C 138.426,89.4224 139.426,90.5891 139.5,92.5C 138.833,92.5 138.167,92.5 137.5,92.5C 99.8333,91.1667 62.1667,91.1667 24.5,92.5C 24.1667,92.5 23.8333,92.5 23.5,92.5C 23.5743,90.5891 24.5743,89.4224 26.5,89C 30.8206,88.501 35.1539,88.3343 39.5,88.5 Z"/></g>
<g><path style="opacity:1" fill="#898b8d" d="M 137.5,92.5 C 138.167,92.5 138.833,92.5 139.5,92.5C 140.301,94.0418 140.634,95.7085 140.5,97.5C 139.612,94.0133 137.279,92.6799 133.5,93.5C 128.009,92.9842 123.176,94.3176 119,97.5C 118.885,99.1068 119.385,100.607 120.5,102C 119.511,104.586 118.844,106.919 118.5,109C 119.167,109.333 119.833,109.667 120.5,110C 117.853,110.315 117.187,111.482 118.5,113.5C 117.872,115.258 116.872,116.758 115.5,118C 116.167,118.333 116.833,118.667 117.5,119C 115.99,120.351 114.99,122.018 114.5,124C 114.718,126.224 114.718,128.391 114.5,130.5C 111.956,131.937 111.956,133.437 114.5,135C 113.284,136.74 111.618,137.74 109.5,138C 110.659,139.827 111.992,141.493 113.5,143C 112.78,145.122 111.613,145.622 110,144.5C 109.489,146.878 108.822,149.212 108,151.5C 107,151.5 106,151.5 105,151.5C 104.085,152.328 103.419,153.328 103,154.5C 102.667,153.833 102.333,153.167 102,152.5C 101.5,153.667 100.667,154.5 99.5,155C 99.8333,155.333 100.167,155.667 100.5,156C 84.8333,156.667 69.1667,156.667 53.5,156C 52.1667,155.333 50.8333,154.667 49.5,154C 49.2545,152.94 49.2545,151.773 49.5,150.5C 47.5799,148.366 45.9132,146.032 44.5,143.5C 44.7093,142.914 45.0426,142.414 45.5,142C 44.2986,141.097 43.4652,139.931 43,138.5C 42.2825,139.451 41.4491,139.617 40.5,139C 41.3279,138.085 42.3279,137.419 43.5,137C 42.8095,135.933 42.3095,134.766 42,133.5C 41.1072,134.711 40.2739,134.711 39.5,133.5C 40.376,132.749 41.376,132.249 42.5,132C 42,131.5 41.5,131 41,130.5C 39.9887,131.337 38.8221,131.67 37.5,131.5C 37.4125,128.402 37.9125,128.068 39,130.5C 39.624,128.536 39.124,126.869 37.5,125.5C 37.7093,124.914 38.0426,124.414 38.5,124C 36.9559,123.71 35.6226,123.044 34.5,122C 35.4491,121.383 36.2825,121.549 37,122.5C 37.6838,121.216 37.5171,120.049 36.5,119C 39.1667,118.333 39.1667,117.667 36.5,117C 36.9574,116.586 37.2907,116.086 37.5,115.5C 36.736,113.039 35.736,110.539 34.5,108C 35.3081,107.692 35.9747,107.192 36.5,106.5C 35.2792,103.705 33.9459,100.538 32.5,97C 32.8333,96.6667 33.1667,96.3333 33.5,96C 32.0577,95.6232 31.0577,94.7899 30.5,93.5C 35.6831,92.5283 38.8497,94.5283 40,99.5C 40.9025,100.701 42.0692,101.535 43.5,102C 42.5,102.333 41.5,102.667 40.5,103C 42.3028,104.262 43.6361,105.929 44.5,108C 42.8198,108.347 41.8198,109.347 41.5,111C 42.3027,114.622 44.3027,117.289 47.5,119C 46.572,119.388 45.9054,120.055 45.5,121C 46.5733,122.416 46.5733,123.75 45.5,125C 47,125.833 48.1667,127 49,128.5C 49.4226,127.044 50.2559,126.544 51.5,127C 49.1145,129.707 48.9478,132.54 51,135.5C 51.3333,134.833 51.6667,134.167 52,133.5C 53.0862,136.228 53.4196,138.894 53,141.5C 55.005,139.2 57.1717,139.2 59.5,141.5C 63.8437,140.052 67.5103,141.552 70.5,146C 72.4233,146.808 74.4233,147.308 76.5,147.5C 81.149,146.85 85.8157,146.35 90.5,146C 93.5395,144.969 96.0395,143.135 98,140.5C 99,141.833 100,141.833 101,140.5C 101.333,138.5 101.667,136.5 102,134.5C 102.667,133.167 103.333,133.167 104,134.5C 104.658,132.892 104.158,131.725 102.5,131C 103.551,129.615 104.884,128.615 106.5,128C 105.833,127.667 105.167,127.333 104.5,127C 106.351,125.316 108.018,123.483 109.5,121.5C 107.535,119.481 107.369,117.481 109,115.5C 109.914,116.654 110.747,116.487 111.5,115C 110.158,112.985 109.658,110.818 110,108.5C 110.811,109.96 111.645,110.293 112.5,109.5C 111.687,108.186 110.687,107.019 109.5,106C 111.807,105.646 112.141,104.646 110.5,103C 111.272,101.779 112.272,100.779 113.5,100C 112.5,99.6667 111.5,99.3333 110.5,99C 111.833,98.3333 111.833,97.6667 110.5,97C 111.549,96.5078 112.549,96.6744 113.5,97.5C 113.736,96.7528 114.07,95.9195 114.5,95C 116.382,94.8019 118.048,94.3019 119.5,93.5C 125.31,92.5104 131.31,92.1771 137.5,92.5 Z"/></g>
<g><path style="opacity:1" fill="#989a9c" d="M 24.5,92.5 C 62.1667,91.1667 99.8333,91.1667 137.5,92.5C 131.31,92.1771 125.31,92.5104 119.5,93.5C 110.479,93.4011 101.479,93.7345 92.5,94.5C 92.5,95.8333 92.5,97.1667 92.5,98.5C 90.4884,97.9862 88.4884,97.8195 86.5,98C 86.1667,98.3333 85.8333,98.6667 85.5,99C 86.8333,99.6667 88.1667,100.333 89.5,101C 87.9873,103.023 86.6539,102.856 85.5,100.5C 83.1639,102.23 83.1639,103.73 85.5,105C 84.0692,105.465 82.9025,106.299 82,107.5C 80.8293,105.384 79.3293,104.718 77.5,105.5C 77.2668,102.875 75.6001,100.875 72.5,99.5C 71.7132,100.242 71.0465,101.075 70.5,102C 73.2252,103.115 75.5585,104.782 77.5,107C 75.8629,108.951 74.3629,108.784 73,106.5C 71.883,107.949 71.2163,109.616 71,111.5C 71.2288,108.19 69.7288,106.356 66.5,106C 67.3279,105.085 68.3279,104.419 69.5,104C 67.9281,100.583 66.7614,100.749 66,104.5C 65.5,104 65,103.5 64.5,103C 65.9277,99.5259 65.4277,99.0259 63,101.5C 62.6411,98.4557 61.9745,98.1224 61,100.5C 60.9928,98.3807 59.8261,96.5474 57.5,95C 47.2718,93.1312 36.9385,92.2978 26.5,92.5C 25.8333,92.5 25.1667,92.5 24.5,92.5 Z"/></g>
<g><path style="opacity:1" fill="#797c7f" d="M 133.5,93.5 C 137.279,92.6799 139.612,94.0133 140.5,97.5C 139.656,108.487 138.99,119.487 138.5,130.5C 137.549,131.919 137.216,133.585 137.5,135.5C 136.578,142.798 135.745,150.131 135,157.5C 134.283,158.044 133.783,158.711 133.5,159.5C 98.8333,159.5 64.1667,159.5 29.5,159.5C 26.738,155.726 25.738,151.393 26.5,146.5C 26.6657,142.154 26.499,137.821 26,133.5C 25.79,131.942 25.29,130.609 24.5,129.5C 23.8748,117.831 23.2082,106.164 22.5,94.5C 23.4959,94.5858 24.3292,94.2524 25,93.5C 24.9789,97.0088 25.8122,100.175 27.5,103C 27.2807,106.152 26.9474,109.652 26.5,113.5C 26.3647,115.808 27.0314,117.808 28.5,119.5C 28.466,123.364 28.466,127.197 28.5,131C 29.1667,132 29.8333,133 30.5,134C 30.1667,136.333 29.8333,138.667 29.5,141C 30.1667,142.333 31.1667,143.333 32.5,144C 29.2577,144.283 28.9244,145.117 31.5,146.5C 30.45,148.102 31.1167,148.935 33.5,149C 32.8333,149.333 32.1667,149.667 31.5,150C 32.9661,151.552 33.9661,153.386 34.5,155.5C 37.1071,156.318 39.7737,156.818 42.5,157C 68.515,157.785 94.515,157.452 120.5,156C 118.068,154.913 118.402,154.413 121.5,154.5C 121.587,151.402 121.087,151.068 120,153.5C 119.221,151.094 120.054,149.427 122.5,148.5C 121.674,147.549 121.508,146.549 122,145.5C 125.611,144.465 126.111,142.798 123.5,140.5C 123.808,139.692 124.308,139.025 125,138.5C 125.718,139.451 126.551,139.617 127.5,139C 125.99,137.649 124.99,135.982 124.5,134C 125.525,131.116 126.858,128.616 128.5,126.5C 127.833,126.167 127.167,125.833 126.5,125.5C 127.953,123.533 128.953,121.367 129.5,119C 127.009,118.374 127.009,117.541 129.5,116.5C 128.429,114.675 129.096,113.508 131.5,113C 128.057,112.779 127.724,111.779 130.5,110C 130.167,108.333 129.833,106.667 129.5,105C 130.308,104.692 130.975,104.192 131.5,103.5C 130.833,103.167 130.167,102.833 129.5,102.5C 130.767,100.629 130.767,98.7959 129.5,97C 131.324,96.34 132.657,95.1733 133.5,93.5 Z"/></g>
<g><path style="opacity:1" fill="#8d9092" d="M 26.5,92.5 C 36.9385,92.2978 47.2718,93.1312 57.5,95C 59.8261,96.5474 60.9928,98.3807 61,100.5C 61.9745,98.1224 62.6411,98.4557 63,101.5C 65.4277,99.0259 65.9277,99.5259 64.5,103C 65,103.5 65.5,104 66,104.5C 66.7614,100.749 67.9281,100.583 69.5,104C 68.3279,104.419 67.3279,105.085 66.5,106C 69.7288,106.356 71.2288,108.19 71,111.5C 71.2163,109.616 71.883,107.949 73,106.5C 74.3629,108.784 75.8629,108.951 77.5,107C 75.5585,104.782 73.2252,103.115 70.5,102C 71.0465,101.075 71.7132,100.242 72.5,99.5C 75.6001,100.875 77.2668,102.875 77.5,105.5C 79.3293,104.718 80.8293,105.384 82,107.5C 82.9025,106.299 84.0692,105.465 85.5,105C 83.1639,103.73 83.1639,102.23 85.5,100.5C 86.6539,102.856 87.9873,103.023 89.5,101C 88.1667,100.333 86.8333,99.6667 85.5,99C 85.8333,98.6667 86.1667,98.3333 86.5,98C 88.4884,97.8195 90.4884,97.9862 92.5,98.5C 92.5,97.1667 92.5,95.8333 92.5,94.5C 101.479,93.7345 110.479,93.4011 119.5,93.5C 118.048,94.3019 116.382,94.8019 114.5,95C 114.07,95.9195 113.736,96.7528 113.5,97.5C 112.549,96.6744 111.549,96.5078 110.5,97C 111.833,97.6667 111.833,98.3333 110.5,99C 111.5,99.3333 112.5,99.6667 113.5,100C 112.272,100.779 111.272,101.779 110.5,103C 112.141,104.646 111.807,105.646 109.5,106C 110.687,107.019 111.687,108.186 112.5,109.5C 111.645,110.293 110.811,109.96 110,108.5C 109.658,110.818 110.158,112.985 111.5,115C 110.747,116.487 109.914,116.654 109,115.5C 107.369,117.481 107.535,119.481 109.5,121.5C 108.018,123.483 106.351,125.316 104.5,127C 105.167,127.333 105.833,127.667 106.5,128C 104.884,128.615 103.551,129.615 102.5,131C 104.158,131.725 104.658,132.892 104,134.5C 103.333,133.167 102.667,133.167 102,134.5C 101.667,136.5 101.333,138.5 101,140.5C 100,141.833 99,141.833 98,140.5C 96.0395,143.135 93.5395,144.969 90.5,146C 85.8157,146.35 81.149,146.85 76.5,147.5C 74.4233,147.308 72.4233,146.808 70.5,146C 67.5103,141.552 63.8437,140.052 59.5,141.5C 57.1717,139.2 55.005,139.2 53,141.5C 53.4196,138.894 53.0862,136.228 52,133.5C 51.6667,134.167 51.3333,134.833 51,135.5C 48.9478,132.54 49.1145,129.707 51.5,127C 50.2559,126.544 49.4226,127.044 49,128.5C 48.1667,127 47,125.833 45.5,125C 46.5733,123.75 46.5733,122.416 45.5,121C 45.9054,120.055 46.572,119.388 47.5,119C 44.3027,117.289 42.3027,114.622 41.5,111C 41.8198,109.347 42.8198,108.347 44.5,108C 43.6361,105.929 42.3028,104.262 40.5,103C 41.5,102.667 42.5,102.333 43.5,102C 42.0692,101.535 40.9025,100.701 40,99.5C 38.8497,94.5283 35.6831,92.5283 30.5,93.5C 28.901,93.7678 27.5676,93.4345 26.5,92.5 Z"/></g>
<g><path style="opacity:1" fill="#848689" d="M 23.5,92.5 C 23.8333,92.5 24.1667,92.5 24.5,92.5C 25.1667,92.5 25.8333,92.5 26.5,92.5C 27.5676,93.4345 28.901,93.7678 30.5,93.5C 31.0577,94.7899 32.0577,95.6232 33.5,96C 33.1667,96.3333 32.8333,96.6667 32.5,97C 33.9459,100.538 35.2792,103.705 36.5,106.5C 35.9747,107.192 35.3081,107.692 34.5,108C 35.736,110.539 36.736,113.039 37.5,115.5C 37.2907,116.086 36.9574,116.586 36.5,117C 39.1667,117.667 39.1667,118.333 36.5,119C 37.5171,120.049 37.6838,121.216 37,122.5C 36.2825,121.549 35.4491,121.383 34.5,122C 35.6226,123.044 36.9559,123.71 38.5,124C 38.0426,124.414 37.7093,124.914 37.5,125.5C 39.124,126.869 39.624,128.536 39,130.5C 37.9125,128.068 37.4125,128.402 37.5,131.5C 38.8221,131.67 39.9887,131.337 41,130.5C 41.5,131 42,131.5 42.5,132C 41.376,132.249 40.376,132.749 39.5,133.5C 40.2739,134.711 41.1072,134.711 42,133.5C 42.3095,134.766 42.8095,135.933 43.5,137C 42.3279,137.419 41.3279,138.085 40.5,139C 41.4491,139.617 42.2825,139.451 43,138.5C 43.4652,139.931 44.2986,141.097 45.5,142C 45.0426,142.414 44.7093,142.914 44.5,143.5C 45.9132,146.032 47.5799,148.366 49.5,150.5C 49.2545,151.773 49.2545,152.94 49.5,154C 50.8333,154.667 52.1667,155.333 53.5,156C 69.1667,156.667 84.8333,156.667 100.5,156C 100.167,155.667 99.8333,155.333 99.5,155C 100.667,154.5 101.5,153.667 102,152.5C 102.333,153.167 102.667,153.833 103,154.5C 103.419,153.328 104.085,152.328 105,151.5C 106,151.5 107,151.5 108,151.5C 108.822,149.212 109.489,146.878 110,144.5C 111.613,145.622 112.78,145.122 113.5,143C 111.992,141.493 110.659,139.827 109.5,138C 111.618,137.74 113.284,136.74 114.5,135C 111.956,133.437 111.956,131.937 114.5,130.5C 114.718,128.391 114.718,126.224 114.5,124C 114.99,122.018 115.99,120.351 117.5,119C 116.833,118.667 116.167,118.333 115.5,118C 116.872,116.758 117.872,115.258 118.5,113.5C 117.187,111.482 117.853,110.315 120.5,110C 119.833,109.667 119.167,109.333 118.5,109C 118.844,106.919 119.511,104.586 120.5,102C 119.385,100.607 118.885,99.1068 119,97.5C 123.176,94.3176 128.009,92.9842 133.5,93.5C 132.657,95.1733 131.324,96.34 129.5,97C 130.767,98.7959 130.767,100.629 129.5,102.5C 130.167,102.833 130.833,103.167 131.5,103.5C 130.975,104.192 130.308,104.692 129.5,105C 129.833,106.667 130.167,108.333 130.5,110C 127.724,111.779 128.057,112.779 131.5,113C 129.096,113.508 128.429,114.675 129.5,116.5C 127.009,117.541 127.009,118.374 129.5,119C 128.953,121.367 127.953,123.533 126.5,125.5C 127.167,125.833 127.833,126.167 128.5,126.5C 126.858,128.616 125.525,131.116 124.5,134C 124.99,135.982 125.99,137.649 127.5,139C 126.551,139.617 125.718,139.451 125,138.5C 124.308,139.025 123.808,139.692 123.5,140.5C 126.111,142.798 125.611,144.465 122,145.5C 121.508,146.549 121.674,147.549 122.5,148.5C 120.054,149.427 119.221,151.094 120,153.5C 121.087,151.068 121.587,151.402 121.5,154.5C 118.402,154.413 118.068,154.913 120.5,156C 94.515,157.452 68.515,157.785 42.5,157C 39.7737,156.818 37.1071,156.318 34.5,155.5C 33.9661,153.386 32.9661,151.552 31.5,150C 32.1667,149.667 32.8333,149.333 33.5,149C 31.1167,148.935 30.45,148.102 31.5,146.5C 28.9244,145.117 29.2577,144.283 32.5,144C 31.1667,143.333 30.1667,142.333 29.5,141C 29.8333,138.667 30.1667,136.333 30.5,134C 29.8333,133 29.1667,132 28.5,131C 28.466,127.197 28.466,123.364 28.5,119.5C 27.0314,117.808 26.3647,115.808 26.5,113.5C 26.9474,109.652 27.2807,106.152 27.5,103C 25.8122,100.175 24.9789,97.0088 25,93.5C 24.3292,94.2524 23.4959,94.5858 22.5,94.5C 22.8333,93.8333 23.1667,93.1667 23.5,92.5 Z"/></g>
<g><path style="opacity:1" fill="#f5f5f5" d="M 83.5,118.5 C 84.5177,120.352 85.8511,122.019 87.5,123.5C 85.942,126.105 86.2753,128.438 88.5,130.5C 87.9598,131.748 87.2931,132.915 86.5,134C 77.7534,136.579 73.9201,133.413 75,124.5C 76.9162,123.072 79.0829,122.072 81.5,121.5C 82.1925,120.482 82.8592,119.482 83.5,118.5 Z"/></g>
<g><path style="opacity:1" fill="#242d9a" d="M 138.5,130.5 C 145.227,139.01 149.227,148.677 150.5,159.5C 148.833,159.5 147.167,159.5 145.5,159.5C 145.515,155.44 145.015,151.44 144,147.5C 142.051,144.058 140.551,140.391 139.5,136.5C 139.043,135.702 138.376,135.369 137.5,135.5C 137.216,133.585 137.549,131.919 138.5,130.5 Z"/></g>
<g><path style="opacity:0.636" fill="#2e3591" d="M 19.5,136.5 C 16.0971,143.778 14.0971,151.444 13.5,159.5C 12.8333,159.5 12.1667,159.5 11.5,159.5C 12.0703,153.285 13.5703,147.285 16,141.5C 16.6972,139.416 17.8639,137.749 19.5,136.5 Z"/></g>
<g><path style="opacity:1" fill="#2e3acb" d="M 26.5,146.5 C 25.738,151.393 26.738,155.726 29.5,159.5C 26.1667,159.5 22.8333,159.5 19.5,159.5C 20.4016,151.823 21.9016,144.156 24,136.5C 24.3333,136.167 24.6667,135.833 25,135.5C 25.1773,139.356 25.6773,143.023 26.5,146.5 Z"/></g>
<g><path style="opacity:1" fill="#2d36b3" d="M 24.5,129.5 C 25.29,130.609 25.79,131.942 26,133.5C 26.499,137.821 26.6657,142.154 26.5,146.5C 25.6773,143.023 25.1773,139.356 25,135.5C 24.6667,135.833 24.3333,136.167 24,136.5C 21.9016,144.156 20.4016,151.823 19.5,159.5C 17.5,159.5 15.5,159.5 13.5,159.5C 14.0971,151.444 16.0971,143.778 19.5,136.5C 20.7536,133.907 22.4202,131.573 24.5,129.5 Z"/></g>
<g><path style="opacity:0.986" fill="#2b36c0" d="M 137.5,135.5 C 138.376,135.369 139.043,135.702 139.5,136.5C 140.551,140.391 142.051,144.058 144,147.5C 145.015,151.44 145.515,155.44 145.5,159.5C 141.5,159.5 137.5,159.5 133.5,159.5C 133.783,158.711 134.283,158.044 135,157.5C 135.745,150.131 136.578,142.798 137.5,135.5 Z"/></g>
</svg>
